<svg xmlns="http://www.w3.org/2000/svg" xmlns:xlink="http://www.w3.org/1999/xlink" width="1920" zoomAndPan="magnify" viewBox="0 0 1440 809.999993" height="1080" preserveAspectRatio="xMidYMid meet" version="1.0"><path fill="#365f33" d="M 1448.054688 628.820312 L 1448.054688 923.238281 L 1299.085938 923.238281 C 1285.222656 918.613281 1271.359375 913.617188 1257.496094 908.988281 C 1087.824219 852.550781 906.136719 844.777344 727.222656 839.78125 C 510.050781 833.859375 292.691406 831.082031 75.335938 831.824219 C 56.113281 831.824219 35.78125 831.824219 18.59375 822.941406 C 1.21875 814.058594 -11.71875 793.703125 -5.433594 775.382812 C -0.261719 760.578125 14.710938 752.25 28.757812 745.40625 C 132.632812 695.253906 245.746094 664.351562 360.710938 653.804688 C 364.035156 653.433594 367.179688 653.0625 370.507812 652.878906 C 370.136719 652.691406 369.582031 652.507812 369.210938 652.136719 C 368.472656 650.839844 368.101562 648.992188 369.027344 647.878906 C 369.949219 646.769531 371.246094 646.585938 372.539062 646.398438 C 378.636719 645.476562 384.738281 646.957031 389.914062 650.285156 C 388.433594 648.992188 388.617188 646.398438 389.914062 645.105469 C 391.390625 643.808594 393.609375 643.625 395.457031 644.550781 C 397.121094 645.289062 398.414062 647.140625 398.96875 648.992188 C 401.371094 648.253906 402.851562 645.847656 404.328125 643.808594 C 405.808594 641.773438 407.839844 639.554688 410.429688 639.738281 C 412.832031 639.738281 414.679688 642.328125 414.679688 644.734375 C 414.679688 646.957031 413.386719 648.992188 411.722656 650.472656 C 474.5625 647.878906 537.40625 651.398438 599.507812 661.390625 C 618.730469 664.351562 637.769531 668.234375 656.992188 672.121094 C 656.617188 668.792969 657.542969 665.089844 660.132812 663.609375 C 665.492188 660.277344 670.113281 670.828125 671.960938 674.34375 C 670.851562 672.492188 671.039062 669.902344 672.515625 668.421875 C 673.992188 666.757812 676.582031 666.386719 678.429688 667.683594 C 680.09375 668.976562 680.464844 671.753906 679.167969 673.234375 C 680.648438 672.308594 682.125 671.382812 683.789062 671.011719 C 685.453125 670.640625 687.488281 670.828125 688.59375 672.121094 C 689.890625 673.417969 690.074219 675.640625 688.59375 676.75 C 695.25 676.191406 701.902344 677.488281 707.816406 680.449219 C 709.113281 681.191406 710.40625 682.300781 710.222656 683.78125 C 783.597656 700.621094 856.789062 718.570312 931.832031 722.828125 C 980.625 725.601562 1029.417969 722.457031 1077.660156 715.609375 C 1075.8125 714.128906 1073.960938 712.648438 1072.667969 711.351562 C 1071.003906 709.6875 1069.527344 706.726562 1071.375 705.246094 C 1072.300781 704.507812 1073.59375 704.507812 1074.703125 704.691406 C 1078.03125 705.246094 1081.171875 706.542969 1083.945312 708.207031 C 1082.097656 706.355469 1081.726562 702.65625 1083.945312 700.804688 C 1085.976562 698.953125 1089.488281 699.695312 1091.335938 701.730469 C 1088.933594 696.363281 1089.117188 690.257812 1091.707031 685.078125 C 1093.1875 682.113281 1096.511719 679.15625 1099.652344 680.636719 C 1101.503906 681.558594 1102.242188 683.597656 1102.796875 685.628906 C 1104.460938 691.554688 1104.460938 697.84375 1102.980469 703.765625 C 1105.9375 700.804688 1110.1875 699.140625 1114.441406 699.140625 C 1115.179688 701.914062 1113.332031 705.246094 1110.558594 705.988281 C 1112.222656 705.433594 1113.886719 704.878906 1115.734375 705.0625 C 1117.398438 705.246094 1119.246094 706.355469 1119.613281 708.023438 L 1119.613281 708.761719 C 1198.90625 693.957031 1277.089844 670.085938 1354.164062 645.847656 C 1360.632812 643.808594 1367.097656 641.773438 1373.570312 639.921875 C 1369.320312 640.109375 1364.882812 640.292969 1360.632812 639.738281 C 1358.414062 639.554688 1355.824219 638.628906 1355.085938 636.59375 C 1354.714844 634.925781 1355.640625 633.078125 1356.75 631.78125 C 1361.554688 625.859375 1368.765625 621.972656 1376.15625 620.863281 C 1383.734375 619.9375 1391.496094 621.789062 1397.78125 626.230469 C 1396.671875 624.011719 1395.75 621.789062 1395.5625 619.382812 C 1395.5625 616.976562 1396.304688 614.574219 1398.335938 613.089844 C 1401.292969 610.871094 1405.914062 612.167969 1408.320312 615.125 C 1410.90625 617.902344 1411.828125 621.605469 1412.570312 625.304688 C 1413.308594 622.898438 1414.234375 620.308594 1415.894531 618.273438 C 1417.558594 616.238281 1420.332031 614.757812 1422.917969 615.683594 C 1426.429688 616.792969 1427.539062 621.234375 1427.355469 624.933594 C 1427.167969 626.414062 1426.800781 627.894531 1426.617188 629.375 C 1430.867188 629.003906 1435.304688 628.449219 1439.554688 628.449219 C 1442.324219 628.449219 1445.285156 628.636719 1448.054688 628.820312 Z M 1448.054688 628.820312 " fill-opacity="1" fill-rule="nonzero"/><path fill="#90b08e" d="M 1448.054688 839.59375 L 1448.054688 923.238281 L -43.695312 923.238281 L -43.695312 687.296875 C 2.511719 656.949219 61.289062 642.882812 120.433594 637.703125 C 118.214844 636.039062 116.179688 634.1875 114.332031 632.335938 C 111.929688 629.746094 109.710938 625.859375 111.558594 623.085938 C 113.59375 620.125 118.214844 621.046875 120.988281 623.269531 C 123.757812 625.488281 125.792969 628.636719 128.933594 630.117188 C 128.195312 627.15625 127.640625 623.269531 130.230469 621.789062 C 132.261719 620.679688 135.035156 621.789062 136.140625 623.824219 C 137.4375 625.675781 137.621094 628.082031 137.808594 630.484375 C 141.503906 625.488281 147.234375 622.160156 153.332031 621.046875 C 156.472656 620.492188 160.355469 621.046875 161.464844 624.011719 C 162.390625 626.785156 159.984375 629.746094 157.953125 631.597656 C 156.289062 633.078125 154.441406 634.1875 152.777344 635.667969 C 186.230469 634.371094 218.945312 635.484375 248.886719 637.890625 C 286.410156 641.035156 323.746094 646.402344 360.710938 653.804688 C 371.984375 655.839844 383.257812 658.246094 394.535156 660.835938 C 447.394531 672.863281 499.515625 688.039062 551.269531 704.136719 C 551.269531 702.101562 551.453125 700.066406 551.820312 698.214844 C 552.378906 696.179688 553.300781 694.332031 555.148438 693.402344 C 557.550781 692.476562 560.324219 694.144531 561.433594 696.550781 C 562.726562 698.769531 562.542969 701.363281 562.355469 703.953125 C 562.355469 699.882812 567.347656 696.921875 570.859375 698.957031 C 574.371094 701.175781 574.003906 707.28125 570.304688 708.949219 C 575.480469 706.542969 581.027344 704.507812 586.753906 703.769531 C 592.484375 703.210938 598.398438 703.769531 603.390625 706.726562 C 605.609375 707.839844 607.824219 710.058594 607.269531 712.464844 C 606.53125 715.425781 602.464844 715.792969 599.324219 715.609375 C 595.625 715.425781 591.929688 715.609375 588.234375 715.792969 C 662.164062 739.480469 735.726562 764.09375 810.765625 783.894531 C 947.910156 819.980469 1089.117188 839.59375 1230.882812 842 C 1230.328125 841.628906 1229.589844 841.445312 1229.035156 840.890625 C 1227.554688 839.964844 1226.078125 838.484375 1226.445312 836.820312 C 1227 834.96875 1229.40625 834.414062 1231.253906 834.785156 C 1234.949219 835.523438 1237.71875 838.855469 1240.308594 841.816406 C 1237.90625 838.484375 1237.167969 833.675781 1238.828125 829.789062 C 1239.570312 827.75 1241.417969 825.714844 1243.449219 826.273438 C 1244.558594 826.640625 1245.296875 827.566406 1245.851562 828.492188 C 1247.515625 831.453125 1248.625 834.601562 1248.808594 837.929688 C 1250.472656 834.042969 1254.539062 831.269531 1258.789062 831.269531 C 1259.898438 831.269531 1261.007812 831.453125 1261.5625 832.378906 C 1262.117188 833.304688 1261.933594 834.414062 1261.378906 835.152344 C 1260.824219 836.078125 1260.085938 836.632812 1259.160156 837.1875 C 1262.300781 835.894531 1266 835.894531 1268.957031 837.1875 C 1269.878906 837.558594 1270.621094 838.113281 1270.621094 839.039062 C 1270.621094 839.78125 1269.695312 840.152344 1268.957031 840.519531 C 1267.847656 841.074219 1266.554688 841.445312 1265.445312 842 C 1299.824219 841.816406 1334.199219 841.261719 1368.578125 839.039062 C 1382.625 838.300781 1396.859375 837.1875 1411.089844 837.1875 C 1410.164062 836.265625 1409.425781 835.339844 1409.054688 834.226562 C 1407.945312 831.269531 1408.871094 827.195312 1411.828125 826.085938 C 1413.863281 825.347656 1416.265625 826.273438 1417.742188 827.9375 C 1419.40625 829.417969 1420.328125 831.453125 1421.257812 833.488281 C 1420.699219 832.007812 1420.886719 829.972656 1421.992188 828.863281 C 1423.101562 827.566406 1425.320312 827.195312 1426.613281 828.308594 C 1427.910156 829.230469 1428.277344 831.453125 1426.984375 832.746094 C 1430.496094 830.714844 1434.75 829.972656 1438.628906 830.714844 C 1440.292969 831.082031 1442.140625 831.824219 1442.140625 833.488281 C 1442.324219 834.96875 1440.847656 836.078125 1439.554688 836.820312 C 1438.8125 837.375 1437.703125 837.746094 1436.964844 838.113281 C 1440.664062 838.484375 1444.359375 838.855469 1448.054688 839.59375 Z M 1448.054688 839.59375 " fill-opacity="1" fill-rule="nonzero"/></svg>